<?xml version="1.0" encoding="UTF-8"?>
<svg id="Layer_1" data-name="Layer 1" xmlns="http://www.w3.org/2000/svg" viewBox="0 0 1124.12 868.93">
  <defs>
    <style>
      .cls-1 {
        fill: #549abc;
        stroke-width: 0px;
      }
    </style>
  </defs>
  <path class="cls-1" d="m674.31,868.93c-6.21,0-11.17-4.97-12.41-11.17l-18.62-209.78h-325.23l-114.2,211.02c-2.48,6.21-9.93,9.93-16.14,9.93H6.48c-4.97,0-8.69-4.97-4.97-9.93L491.84,9.93c3.72-6.21,11.17-9.93,17.38-9.93h232.13c6.21,0,11.17,4.97,12.41,11.17l91.86,846.58c1.24,6.21-3.72,11.17-9.93,11.17h-161.37Zm-43.45-371.16l-33.52-371.16-198.61,371.16h232.13Z"/>
  <path class="cls-1" d="m762.65,728.66h352.54c6.21,0,9.93,4.97,8.69,11.17l-27.31,117.93c-1.24,6.21-7.45,11.17-13.66,11.17h-371.48c-6.21,0,3.13-4.95,4.37-11.15"/>
</svg>